<?xml version="1.0" encoding="UTF-8"?>
<svg width="800" height="450" viewBox="0 0 800 450" fill="none" xmlns="http://www.w3.org/2000/svg">
  <rect width="800" height="450" fill="#1A1A1A"/>
  <path d="M400 200C400 222.091 382.091 240 360 240C337.909 240 320 222.091 320 200C320 177.909 337.909 160 360 160C382.091 160 400 177.909 400 200Z" fill="#2D2D2D"/>
  <path d="M400 200C400 222.091 382.091 240 360 240C337.909 240 320 222.091 320 200C320 177.909 337.909 160 360 160C382.091 160 400 177.909 400 200Z" stroke="#3D3D3D" stroke-width="2"/>
  <path d="M360 180C360 191.046 351.046 200 340 200C328.954 200 320 191.046 320 180C320 168.954 328.954 160 340 160C351.046 160 360 168.954 360 180Z" fill="#3D3D3D"/>
  <path d="M480 180C480 191.046 471.046 200 460 200C448.954 200 440 191.046 440 180C440 168.954 448.954 160 460 160C471.046 160 480 168.954 480 180Z" fill="#3D3D3D"/>
  <path d="M420 250C420 261.046 411.046 270 400 270C388.954 270 380 261.046 380 250C380 238.954 388.954 230 400 230C411.046 230 420 238.954 420 250Z" fill="#3D3D3D"/>
  <path d="M320 300H480" stroke="#3D3D3D" stroke-width="2" stroke-linecap="round"/>
  <path d="M320 320H480" stroke="#3D3D3D" stroke-width="2" stroke-linecap="round"/>
  <path d="M320 340H480" stroke="#3D3D3D" stroke-width="2" stroke-linecap="round"/>
</svg> 